<svg xmlns="http://www.w3.org/2000/svg" fill="none" viewBox="0 0 545 268">
  <path d="M25.469 200.104c-16.685 8.454-31.034 26.623-23.331 46.234 6.619 16.854 28.23 24.266 44.819 20.133 17.477-4.358 26.36-21.093 21.26-38.375-5.441-18.427-24.512-30.158-43.166-28.033-3.493.4-3.533 5.95 0 5.549a35.354 35.354 0 0134.816 17.2c8.789 15.129 3.168 33.836-14.38 38.3-12.96 3.3-30.137-1.919-36.93-14.064-9.737-17.409 4.914-34.669 19.7-42.162 3.174-1.611.382-6.4-2.79-4.789m518.883 36.338a14.663 14.663 0 11-29.325 0 14.663 14.663 0 0129.325 0" fill="#51E3D4"/>
  <path d="M399.557 98.056a6.414 6.414 0 11-12.828 0 6.414 6.414 0 0112.828 0z" fill="#340CB9"/>
  <path d="M104.471 150.292a9.165 9.165 0 11-18.329-.003 9.165 9.165 0 0118.329.003" fill="#D6F1ED"/>
  <path d="M361.982 0l8.1 14.811 14.809 8.1-14.809 8.1-8.1 14.811-8.1-14.811-14.809-8.101 14.809-8.1 8.1-14.81zM54.068 64.149l5.509 10.07 10.07 5.509-10.07 5.506-5.51 10.073-5.505-10.073-10.073-5.506 10.073-5.509 5.506-10.07z" fill="#474F85"/>
</svg>
