<svg xmlns="http://www.w3.org/2000/svg" fill="none" viewBox="0 0 356 440"><path fill="#474F85" fill-opacity=".1" d="M355.569 401.389c0 21.257-79.6 38.489-177.784 38.489S0 422.647 0 401.389C0 380.131 79.6 362.9 177.784 362.9s177.785 17.23 177.785 38.489z"/><path fill="#474F85" d="M210.174 95.467c-5.477-16.12-10.1-34.225-9.322-49.9v-.006c.4-6.455.459-12.138.781-15.67 1.7-18.676-11.686-26-16.508-26.47-4.822-.471-9.102-3.921-25.122-3.36C144.666.6 134.145 11.716 131.241 27.1c-2.349 12.419-.866 19.829 1.406 30.56.12 3.172.25 15.766-4.833 24.6-5.856 10.17-13.843 11.963-14.179 36.234-.336 24.271 96.538 8.332 96.538 8.332s5.477-15.238 0-31.36"/><path fill="#FCB4D2" d="M116.446 393.853a10.852 10.852 0 00-2.011 4.61 31.3 31.3 0 00.316 15.312c.11.612.408 1.174.853 1.609a3.15 3.15 0 001.771.509c6.483.481 13-.148 19.271-1.861a2.905 2.905 0 001.489-.739 2.932 2.932 0 00.515-1.838c.204-4.108.407-8.217.608-12.326a10.191 10.191 0 00-.174-3.169c-1.959-7.222-18.655-6.856-22.638-2.107z"/><path fill="#D38C0D" d="M107.555 421.357c-4.812 3.493-12.444 7.055-18.07 5.17a4.772 4.772 0 01-2.884-2.2 6.12 6.12 0 01-.45-2.652 75.533 75.533 0 013.54-23.917c1.452-4.555 3.96-9.531 8.579-10.621a22.255 22.255 0 0115.029 2.49c7.1 4.4 24.869 1.38 25.722 1.831 2.013 1.058 2.568 12.069 1.732 14.202-2.272 5.81-9.359 8.132-14.965 8.845-7.153.909-12.245 2.506-18.233 6.852"/><path fill="#FFB000" d="M102.66 386.727c-.961.032-1.917.154-2.856.365-4.505 1.089-6.954 6.075-8.368 10.635a77.456 77.456 0 00-3.453 23.945 6.3 6.3 0 00.44 2.655 4.68 4.68 0 002.813 2.2c3.381 1.162 7.5.252 11.271-1.434a63.404 63.404 0 003.511-14.8 46.723 46.723 0 00-3.358-23.566"/><path fill="#C9DFFF" d="M143.221 108.537c21.231-.53 42.592-1.053 63.59 2.1 7.083 1.063 14.323 2.634 20.182 6.713 10.962 7.631 14.493 21.943 16.462 35.063 1.379 9.187 2.392 18.425 3.4 27.659.5 4.572 1 9.242-.021 13.728-1.318 5.816-5.048 10.777-8.875 15.379-11.941 14.365-26.081 27.409-43.184 35.116-17.103 7.707-37.514 9.563-54.659 1.947-5.99-2.659-11.429-6.373-16.807-10.1-6.57-4.553-13.255-9.3-17.717-15.9-3.157-4.67-5.052-10.057-6.626-15.458-5.409-18.562-7.292-38.505-3.507-57.56 2.337-11.768.664-23.687 12.268-29.709 9.667-5.014 24.77-8.709 35.494-8.978z"/><path fill="#FCB4D2" d="M153.433 88.896l-3.141 30.099s17.167 8.559 32.991 0l-3.141-36.518-26.709 6.419z"/><path fill="#EA5E89" d="M152.893 88.692l-.768 8.465c3.5 1.609 8.16 2.914 11.868.429 4.914-3.3 10.181-6.245 17.457-4.214l-.843-10.895-27.714 6.215z"/><path fill="#FCB4D2" d="M167.705 91.642a26.693 26.693 0 01-26.577-26.645V37.644a26.576 26.576 0 0153.152 0v27.353a26.692 26.692 0 01-26.575 26.645"/><path fill="#FCB4D2" d="M144.907 50.95s-8.12-8.938-16.918-3.216.68 21.457 16.918 23.6c16.238 2.143 0-20.386 0-20.386m43.76.002s8.12-8.938 16.918-3.216-.68 21.457-16.918 23.6c-16.238 2.143 0-20.386 0-20.386"/><path fill="#474F85" d="M139.018 34.494c.193 0 18.188 1.206 29.377-7.568a6.05 6.05 0 018.761 1.623c4.066 6.458 10.806 14.915 17.55 13.435 10.7-2.354-6.113-39.8-35.81-31.666-29.697 8.134-19.878 24.176-19.878 24.176z"/><path fill="#C9DFFF" d="M253.152 135.335c-6.601-10.628-21.279-17.421-35.628-21.7a4.798 4.798 0 011.549 3.845l-4.438 68.635c8.424 14.222 16.65 29.878 15.466 36.278-1.169 6.3-11.185 21.806-20.043 34.59a708.767 708.767 0 01-13.945 19.395 50.74 50.74 0 0115.923 20.54s7.665-4.09 17.96-10.621c11.689-7.413 26.771-17.97 37.889-29.249 20.915-21.216.238-97.6-14.734-121.71M131.372 281.3s-8.8-8.46-13.341-12.847c.025.012.054.021.079.031 0 0-3.631-3.493-3.631-3.485 0 .008.008.021.01.035a4633.68 4633.68 0 01-7.1-6.881c-6.524-6.336-12.436-12.122-16.588-16.276 0 0-2.481-4.624 2.169-13.021a114.478 114.478 0 0114.908-20.7c1.987-44.677-3.826-77.822-2.371-89.022-16.486 7.985-20.256 13.941-23.745 18.477-3.973 5.173-47.706 91.244-32.888 116.56 8.476 14.48 18.6 28.839 35.516 41.458 12.657 9.444 29.111 9.143 51.556 15.952 0 0 4.5-17.72 16.18-19.167 0 0-9.177.01-20.753-11.114"/><path fill="#B6D7FF" d="M49.288 216.274c-3.943 15.282-5.112 29-.367 36.812a159.416 159.416 0 0015.588 21.839c18.948-22.451-5.701-49.584-15.221-58.651zm226.353-7.331c-11.069 6.662-29.867 23.608-19.881 58.651 4.05-3.16 7.939-6.521 11.652-10.071 9.303-9.014 10.788-27.917 8.229-48.58zm-37.386 2.697c-.329-9.062-9.233-12.329-11.539-24.368a24.696 24.696 0 00-9.41-14.986l-1.032 14.986c8.979 14.242 17.748 29.923 16.486 36.333 0 0 5.823-2.9 5.495-11.965zM94.773 227.177a111.273 111.273 0 0114.785-20.1c.477-10.467.5-20.267.281-29.288a59.771 59.771 0 00-11.61 23.085c-5.212 19.826-13.186 20.727-11.959 26.737.973 4.773 1.001 7.273 5.873 10.656-.372-1.957-.4-5.723 2.632-11.09m52.08-113.276a2.814 2.814 0 00-.156 1.647c.246.549.672.999 1.208 1.275 9.973 6.484 22.792 6.239 34.725 5.764 1.82-.072 3.931-.306 4.9-1.829a5.529 5.529 0 00.6-2.792c.209-5.534.42-11.069.631-16.607a5.774 5.774 0 00-.567-3.394c-1.106-1.708-3.708-1.784-5.551-.885s-3.225 2.482-4.889 3.671c-2.61 1.867-6.338 2.655-9.04.921-1.635-1.05-2.66-2.853-4.289-3.913-2.608-1.692-5.374-.833-8.228-1.057-1.96-.154-4.64-1.981-6.053-1.203-2.895 1.59-2.337 15.184-3.291 18.402z"/><path fill="#fff" d="M252.931 204.089l-18.86-17.14s-44.322-.462-69.783 19.456a63.317 63.317 0 00-42.62-16.412h-26.54l-16.316 11.113.87 14.743 167.323 13.255 5.926-25.015z"/><path fill="#E6E6E6" d="M78.812 201.611l.87 14.663h68.778l-2.93-4.121s5.646-8.664-66.718-10.542z"/><path fill="#51E3D4" d="M157.624 298.751l-1.6-.051-79.721-2.939-1.686-22.877-1.964-26.807-3.005-40.8 9.068.294 60.581 2.018h.015l12.943.435.833 14.167 4.536 76.56zm102.638-5.807l-81.456 11.3-2.575-80.5-.279-8.528 77.256-11.233 3.722-.539.969 25.968.969 26.353 1.394 37.179z"/><path fill="#25BCAD" d="M152.125 207.11c11.294 9.47 22.91 7.562 22.91 7.562l2.75 89.321c-16.124 1.7-21.968-5.559-21.968-5.559l-3.692-91.324z"/><path fill="#FCB4D2" d="M262.089 264.591a6.745 6.745 0 01-2.9 5.816 14.197 14.197 0 00-2.782 2.615c-5.817 7-22.622-7.239-28.873-11.914-6.237-4.692 2.704-13.074 10.512-17.042a22.137 22.137 0 012.838-1.207 16.445 16.445 0 019.7-.368c1.842.4 3.722.956 5.817 1.341.146.027.29.051.428.073a5.294 5.294 0 014.638 4.89l.622 15.796zm-154.148 14.834c-6.046 4.69-22.36 18.927-28 11.926a13.015 13.015 0 00-3.832-3.328 6.735 6.735 0 01-3.38-5.334c-.361-4.088-.896-10.394-1.238-15.437a4.783 4.783 0 015.408-4.911c1.016.09 2.04.034 3.041-.168 6.08-1.172 10.234-3.751 17.8.218 7.568 3.987 16.241 12.345 10.2 17.035"/><path fill="#022B66" d="M322.755 323.127c-1.622-4.219-3.637-8.407-6.865-11.558-7.326-7.157-18.8-7.286-28.978-6.412a366.655 366.655 0 00-40.036 5.89c-4.929.978-9.941 2.032-14.941 1.518-3.175-.327-3.808-13.814-3.808-13.814l-128.125 6.255s1.02 4.464 0 5.306c-8.075 6.675-20.544-3.93-30.865-5.629-7.183-1.182-14.49-2.284-21.71-1.385-7.22.899-14.472 4.059-18.8 9.944-4.328 5.885-5.628 16.245-4.307 23.441 3.426 18.635 25.644 36.426 43.287 43.08 128.411 48.43 172.343-27.456 202.937-29.419 15.1-.968 30.752-1.595 44.309-8.359 4.206-2.1 8.47-5.241 9.377-9.872.595-3.019-.372-6.115-1.475-8.986z"/><path stroke="#FFB000" stroke-linejoin="round" stroke-miterlimit="10" stroke-width=".458" d="M106.401 312.676c.547-.125 1.091-.244 1.639-.36"/><path stroke="#FFB000" stroke-dasharray="1.86 1.86" stroke-linejoin="round" stroke-miterlimit="10" stroke-width=".458" d="M111.803 308.81c25.806-4.227 52.687 3.31 78.818.133 11-1.338 22.46-4.511 32.985-1.793"/><path stroke="#FFB000" stroke-linejoin="round" stroke-miterlimit="10" stroke-width=".458" d="M223.732 310.381c.53.17 1.057.359 1.58.567"/><path stroke="#FFB000" stroke-dasharray="1.83 1.83" stroke-linejoin="round" stroke-miterlimit="10" stroke-width=".458" d="M167.389 313.414c.757 14.035.832 28.087.224 42.155"/><path fill="#00368B" d="M316.225 310.983c-11.964-10.937-39.435-1.114-54.2 5.72-13.933 6.45-27.368 13.892-40.789 21.325l-94.771 46.901s4.051 31.311 10.128 34.643c6.077 3.332 165.45-51.3 165.45-51.3s51.771-22.921 14.182-57.289z"/><path stroke="#FFB000" stroke-dasharray="1.83 1.83" stroke-linejoin="round" stroke-miterlimit="10" stroke-width=".458" d="M137.462 416.053c56.8-17.986 109.963-34.881 165.424-56.712 5.437-2.139 10.928-4.354 15.623-7.847 4.695-3.493 8.581-8.46 9.567-14.253"/><path fill="#022B66" d="M279.08 361.158c-13.081 1.79-25.785 6.246-38.971 6.825a31.587 31.587 0 01-12.488-1.535c-4.6-1.733-8.414-5.041-12.118-8.282l-13.438-11.761-75.6 37.992s4.051 31.792 10.128 35.173c6.077 3.381 165.448-52.084 165.448-52.084a61.43 61.43 0 005.875-3.172c-8.653-4.035-19.172-4.481-28.835-3.157"/><path fill="#FCB4D2" d="M226.444 383.87a15.07 15.07 0 00-5.222-.8c-5.533.191-10.346 4.082-13.441 8.674a23.324 23.324 0 00-4.251 15.024c1.251 12.915 12.965 14.786 24.3 14.782a58.23 58.23 0 003-14.689 45.07 45.07 0 00-4.386-22.991"/><path fill="#D38C0D" d="M300.595 405.549c-3.493-6.8-10.567-11.327-18.043-13.3-7.476-1.973-15.374-1.679-23.069-.861-6.845.726-13.945 1.829-20.475-.315-4.698-1.542-8.962-4.713-13.57-6.179a42.51 42.51 0 014.26 21.98 54.913 54.913 0 01-2.914 14.043c4.719 0 9.371-.332 13.125-.3 16.023.123 31.844 6.191 47.741 4.2 5.6-.7 11.707-2.951 13.931-8.057 1.549-3.561.789-7.753-.986-11.21"/><path fill="#FFB000" d="M300.594 404.552c-3.494-6.514-10.567-10.847-18.047-12.736a57.813 57.813 0 00-17.565-1.271 44.767 44.767 0 005.045 32.081c5.835.84 11.751.966 17.617.376 5.6-.673 11.71-2.826 13.934-7.716 1.549-3.41.789-7.425-.986-10.734"/><path fill="#00368B" d="M33.922 307.345c12.029-11 39.656-1.122 54.5 5.751 14.013 6.485 27.523 13.967 41.02 21.442l90.497 44.279s-4.947 33.74-11.059 37.088c-6.112 3.348-160.7-50.955-160.7-50.955s-52.062-23.051-14.261-57.6"/><path stroke="#FFB000" stroke-dasharray="1.83 1.83" stroke-linejoin="round" stroke-miterlimit="10" stroke-width=".458" d="M23.827 328.077c5.093 9.752 10.367 19.737 18.633 27.024 9.567 8.438 22.183 12.425 34.394 16.194 15.449 4.768 30.897 9.534 46.345 14.3l83.911 26.792"/></svg>